%FSLAX34Y34*%
G04 Gerber Fmt 3.4, Leading zero omitted, Abs format*
G04 (created by PCBNEW (2014-03-19 BZR 4756)-product) date Sat 21 Jun 2014 18:27:49 BST*
%MOIN*%
G01*
G70*
G90*
G04 APERTURE LIST*
%ADD10C,0.005906*%
%ADD11C,0.007874*%
%ADD12R,0.023622X0.015748*%
%ADD13R,0.015748X0.023622*%
%ADD14R,0.118110X0.118110*%
%ADD15R,0.011800X0.015700*%
%ADD16R,0.015700X0.023600*%
%ADD17R,0.019685X0.019685*%
%ADD18R,0.068000X0.068000*%
%ADD19O,0.068000X0.068000*%
%ADD20R,0.023600X0.015700*%
%ADD21R,0.133900X0.133900*%
%ADD22C,0.035000*%
%ADD23C,0.010000*%
G04 APERTURE END LIST*
G54D10*
G54D11*
X63209Y-49945D02*
X63389Y-49945D01*
X63299Y-49945D02*
X63299Y-49630D01*
X63329Y-49675D01*
X63359Y-49705D01*
X63389Y-49720D01*
X63014Y-49630D02*
X62984Y-49630D01*
X62954Y-49645D01*
X62939Y-49660D01*
X62924Y-49690D01*
X62909Y-49750D01*
X62909Y-49825D01*
X62924Y-49885D01*
X62939Y-49915D01*
X62954Y-49930D01*
X62984Y-49945D01*
X63014Y-49945D01*
X63044Y-49930D01*
X63059Y-49915D01*
X63074Y-49885D01*
X63089Y-49825D01*
X63089Y-49750D01*
X63074Y-49690D01*
X63059Y-49660D01*
X63044Y-49645D01*
X63014Y-49630D01*
X62819Y-49735D02*
X62699Y-49735D01*
X62774Y-49630D02*
X62774Y-49900D01*
X62759Y-49930D01*
X62729Y-49945D01*
X62699Y-49945D01*
X62549Y-49945D02*
X62579Y-49930D01*
X62594Y-49915D01*
X62609Y-49885D01*
X62609Y-49795D01*
X62594Y-49765D01*
X62579Y-49750D01*
X62549Y-49735D01*
X62504Y-49735D01*
X62474Y-49750D01*
X62459Y-49765D01*
X62444Y-49795D01*
X62444Y-49885D01*
X62459Y-49915D01*
X62474Y-49930D01*
X62504Y-49945D01*
X62549Y-49945D01*
X62339Y-49630D02*
X62129Y-49630D01*
X62264Y-49945D01*
X62009Y-49915D02*
X61994Y-49930D01*
X62009Y-49945D01*
X62024Y-49930D01*
X62009Y-49915D01*
X62009Y-49945D01*
X61724Y-49930D02*
X61754Y-49945D01*
X61814Y-49945D01*
X61844Y-49930D01*
X61859Y-49915D01*
X61874Y-49885D01*
X61874Y-49795D01*
X61859Y-49765D01*
X61844Y-49750D01*
X61814Y-49735D01*
X61754Y-49735D01*
X61724Y-49750D01*
X61544Y-49945D02*
X61574Y-49930D01*
X61589Y-49915D01*
X61604Y-49885D01*
X61604Y-49795D01*
X61589Y-49765D01*
X61574Y-49750D01*
X61544Y-49735D01*
X61499Y-49735D01*
X61469Y-49750D01*
X61454Y-49765D01*
X61439Y-49795D01*
X61439Y-49885D01*
X61454Y-49915D01*
X61469Y-49930D01*
X61499Y-49945D01*
X61544Y-49945D01*
X61304Y-49945D02*
X61304Y-49735D01*
X61304Y-49765D02*
X61289Y-49750D01*
X61259Y-49735D01*
X61214Y-49735D01*
X61184Y-49750D01*
X61169Y-49780D01*
X61169Y-49945D01*
X61169Y-49780D02*
X61154Y-49750D01*
X61124Y-49735D01*
X61079Y-49735D01*
X61049Y-49750D01*
X61034Y-49780D01*
X61034Y-49945D01*
G54D12*
X61417Y-41742D03*
X61417Y-41998D03*
X61417Y-42253D03*
X61417Y-42509D03*
G54D13*
X61820Y-42913D03*
X62076Y-42913D03*
X62332Y-42913D03*
X62588Y-42913D03*
G54D12*
X62992Y-42509D03*
X62992Y-42253D03*
X62992Y-41998D03*
X62992Y-41742D03*
G54D13*
X62588Y-41338D03*
X62332Y-41338D03*
X62076Y-41338D03*
X61820Y-41338D03*
G54D14*
X62204Y-42125D03*
G54D15*
X60826Y-42519D03*
X61062Y-42519D03*
G54D16*
X61515Y-40944D03*
X61869Y-40944D03*
G54D17*
X62834Y-40944D03*
G54D10*
G36*
X62657Y-40846D02*
X62657Y-41043D01*
X62460Y-41043D01*
X62460Y-40846D01*
X62657Y-40846D01*
X62657Y-40846D01*
G37*
G54D18*
X71744Y-40625D03*
G54D19*
X72744Y-40625D03*
X71744Y-41625D03*
X72744Y-41625D03*
X71744Y-42625D03*
X72744Y-42625D03*
X71744Y-43625D03*
X72744Y-43625D03*
G54D20*
X61003Y-41988D03*
X61003Y-41634D03*
G54D21*
X56102Y-36023D03*
X68307Y-36023D03*
X68307Y-48228D03*
X56102Y-48228D03*
G54D22*
X65214Y-40559D03*
X64270Y-41032D03*
X64714Y-41244D03*
X65061Y-41560D03*
X65334Y-41951D03*
X60479Y-42402D03*
X62704Y-40568D03*
G54D23*
X61820Y-41338D02*
X61820Y-40993D01*
X61820Y-40993D02*
X61869Y-40944D01*
X62204Y-42125D02*
X61820Y-41742D01*
X61820Y-41742D02*
X61820Y-41338D01*
X65855Y-41890D02*
X64671Y-40706D01*
X64671Y-40706D02*
X63321Y-40706D01*
X63321Y-40706D02*
X63083Y-40944D01*
X72253Y-43625D02*
X72253Y-43442D01*
X72253Y-43442D02*
X71947Y-43135D01*
X71947Y-43135D02*
X67101Y-43135D01*
X67101Y-43135D02*
X65855Y-41890D01*
X61685Y-42509D02*
X61685Y-42617D01*
X61685Y-42617D02*
X61657Y-42645D01*
X61657Y-42645D02*
X61615Y-42645D01*
X61615Y-42645D02*
X61590Y-42670D01*
X61590Y-42670D02*
X61590Y-43095D01*
X61590Y-43095D02*
X61681Y-43185D01*
X61681Y-43185D02*
X64559Y-43185D01*
X64559Y-43185D02*
X65855Y-41890D01*
X62834Y-40944D02*
X63083Y-40944D01*
X72744Y-43625D02*
X72253Y-43625D01*
X61685Y-42509D02*
X61820Y-42509D01*
X61820Y-42509D02*
X62204Y-42125D01*
X61417Y-42509D02*
X61685Y-42509D01*
X61417Y-42509D02*
X61149Y-42509D01*
X61062Y-42519D02*
X61139Y-42519D01*
X61139Y-42519D02*
X61149Y-42509D01*
X60735Y-41988D02*
X60735Y-41292D01*
X60735Y-41292D02*
X61351Y-40676D01*
X61351Y-40676D02*
X62086Y-40676D01*
X62086Y-40676D02*
X62103Y-40694D01*
X60826Y-42519D02*
X60617Y-42729D01*
X60617Y-42729D02*
X60340Y-42729D01*
X60340Y-42729D02*
X60152Y-42541D01*
X60152Y-42541D02*
X60152Y-42268D01*
X60152Y-42268D02*
X60432Y-41988D01*
X60432Y-41988D02*
X60735Y-41988D01*
X62103Y-40694D02*
X62103Y-41311D01*
X62103Y-41311D02*
X62076Y-41338D01*
X65214Y-40559D02*
X64898Y-40242D01*
X64898Y-40242D02*
X62555Y-40242D01*
X62555Y-40242D02*
X62103Y-40694D01*
X61003Y-41988D02*
X60735Y-41988D01*
X61417Y-41998D02*
X61149Y-41998D01*
X61003Y-41988D02*
X61139Y-41988D01*
X61139Y-41988D02*
X61149Y-41998D01*
X61515Y-40944D02*
X61515Y-41212D01*
X61515Y-41212D02*
X61417Y-41311D01*
X61417Y-41311D02*
X61417Y-41742D01*
X61417Y-41742D02*
X61149Y-41742D01*
X61003Y-41634D02*
X61040Y-41634D01*
X61040Y-41634D02*
X61149Y-41742D01*
X62559Y-40944D02*
X62564Y-40950D01*
X62564Y-40950D02*
X62564Y-41314D01*
X62564Y-41314D02*
X62588Y-41338D01*
X63260Y-41742D02*
X63969Y-41032D01*
X63969Y-41032D02*
X64270Y-41032D01*
X62992Y-41742D02*
X63260Y-41742D01*
X64714Y-41244D02*
X63960Y-41998D01*
X63960Y-41998D02*
X62992Y-41998D01*
X62992Y-42253D02*
X64367Y-42253D01*
X64367Y-42253D02*
X65061Y-41560D01*
X65334Y-41951D02*
X64775Y-42509D01*
X64775Y-42509D02*
X62992Y-42509D01*
X61149Y-42253D02*
X60627Y-42253D01*
X60627Y-42253D02*
X60479Y-42402D01*
X61417Y-42253D02*
X61149Y-42253D01*
X62332Y-41338D02*
X62310Y-41316D01*
X62310Y-41316D02*
X62310Y-40778D01*
X62310Y-40778D02*
X62520Y-40568D01*
X62520Y-40568D02*
X62704Y-40568D01*
G54D10*
G36*
X62262Y-42175D02*
X62254Y-42175D01*
X62254Y-42183D01*
X62154Y-42183D01*
X62154Y-42175D01*
X62146Y-42175D01*
X62146Y-42075D01*
X62154Y-42075D01*
X62154Y-42068D01*
X62254Y-42068D01*
X62254Y-42075D01*
X62262Y-42075D01*
X62262Y-42175D01*
X62262Y-42175D01*
G37*
G54D23*
X62262Y-42175D02*
X62254Y-42175D01*
X62254Y-42183D01*
X62154Y-42183D01*
X62154Y-42175D01*
X62146Y-42175D01*
X62146Y-42075D01*
X62154Y-42075D01*
X62154Y-42068D01*
X62254Y-42068D01*
X62254Y-42075D01*
X62262Y-42075D01*
X62262Y-42175D01*
G54D10*
G36*
X64927Y-40872D02*
X64799Y-40819D01*
X64641Y-40819D01*
X64630Y-40792D01*
X64511Y-40672D01*
X64354Y-40608D01*
X64185Y-40607D01*
X64029Y-40672D01*
X63968Y-40733D01*
X63854Y-40755D01*
X63757Y-40820D01*
X63163Y-41414D01*
X63159Y-41413D01*
X63060Y-41413D01*
X63015Y-41413D01*
X63007Y-41393D01*
X62936Y-41323D01*
X62917Y-41315D01*
X62917Y-41264D01*
X62946Y-41293D01*
X62982Y-41293D01*
X63074Y-41255D01*
X63145Y-41184D01*
X63183Y-41093D01*
X63183Y-41056D01*
X63120Y-40994D01*
X62907Y-40994D01*
X62907Y-40993D01*
X62907Y-40943D01*
X62944Y-40928D01*
X62977Y-40895D01*
X63120Y-40895D01*
X63183Y-40833D01*
X63183Y-40796D01*
X63145Y-40704D01*
X63118Y-40678D01*
X63129Y-40653D01*
X63129Y-40542D01*
X64774Y-40542D01*
X64789Y-40558D01*
X64789Y-40643D01*
X64854Y-40799D01*
X64927Y-40872D01*
X64927Y-40872D01*
G37*
G54D23*
X64927Y-40872D02*
X64799Y-40819D01*
X64641Y-40819D01*
X64630Y-40792D01*
X64511Y-40672D01*
X64354Y-40608D01*
X64185Y-40607D01*
X64029Y-40672D01*
X63968Y-40733D01*
X63854Y-40755D01*
X63757Y-40820D01*
X63163Y-41414D01*
X63159Y-41413D01*
X63060Y-41413D01*
X63015Y-41413D01*
X63007Y-41393D01*
X62936Y-41323D01*
X62917Y-41315D01*
X62917Y-41264D01*
X62946Y-41293D01*
X62982Y-41293D01*
X63074Y-41255D01*
X63145Y-41184D01*
X63183Y-41093D01*
X63183Y-41056D01*
X63120Y-40994D01*
X62907Y-40994D01*
X62907Y-40993D01*
X62907Y-40943D01*
X62944Y-40928D01*
X62977Y-40895D01*
X63120Y-40895D01*
X63183Y-40833D01*
X63183Y-40796D01*
X63145Y-40704D01*
X63118Y-40678D01*
X63129Y-40653D01*
X63129Y-40542D01*
X64774Y-40542D01*
X64789Y-40558D01*
X64789Y-40643D01*
X64854Y-40799D01*
X64927Y-40872D01*
G54D10*
G36*
X73549Y-43982D02*
X73334Y-44197D01*
X73334Y-42637D01*
X73334Y-42614D01*
X73289Y-42388D01*
X73161Y-42197D01*
X73054Y-42125D01*
X73161Y-42054D01*
X73289Y-41863D01*
X73334Y-41637D01*
X73334Y-41614D01*
X73289Y-41388D01*
X73161Y-41197D01*
X73054Y-41125D01*
X73161Y-41054D01*
X73289Y-40863D01*
X73334Y-40637D01*
X73334Y-40614D01*
X73289Y-40388D01*
X73161Y-40197D01*
X72969Y-40069D01*
X72744Y-40024D01*
X72518Y-40069D01*
X72326Y-40197D01*
X72321Y-40205D01*
X72296Y-40144D01*
X72225Y-40074D01*
X72133Y-40035D01*
X72034Y-40035D01*
X71354Y-40035D01*
X71262Y-40074D01*
X71192Y-40144D01*
X71154Y-40236D01*
X71154Y-40335D01*
X71154Y-41015D01*
X71192Y-41107D01*
X71262Y-41177D01*
X71323Y-41203D01*
X71199Y-41388D01*
X71154Y-41614D01*
X71154Y-41637D01*
X71199Y-41863D01*
X71326Y-42054D01*
X71433Y-42125D01*
X71326Y-42197D01*
X71199Y-42388D01*
X71154Y-42614D01*
X71154Y-42637D01*
X71199Y-42863D01*
X71326Y-43054D01*
X71433Y-43125D01*
X71326Y-43197D01*
X71199Y-43388D01*
X71154Y-43614D01*
X71154Y-43637D01*
X71199Y-43863D01*
X71326Y-44054D01*
X71518Y-44182D01*
X71744Y-44227D01*
X71969Y-44182D01*
X72161Y-44054D01*
X72246Y-43927D01*
X72268Y-43975D01*
X72438Y-44130D01*
X72602Y-44198D01*
X72694Y-44151D01*
X72694Y-43675D01*
X72686Y-43675D01*
X72686Y-43575D01*
X72694Y-43575D01*
X72694Y-43568D01*
X72794Y-43568D01*
X72794Y-43575D01*
X73269Y-43575D01*
X73316Y-43484D01*
X73219Y-43276D01*
X73054Y-43125D01*
X73161Y-43054D01*
X73289Y-42863D01*
X73334Y-42637D01*
X73334Y-44197D01*
X73316Y-44215D01*
X73316Y-43767D01*
X73269Y-43675D01*
X72794Y-43675D01*
X72794Y-44151D01*
X72885Y-44198D01*
X73049Y-44130D01*
X73219Y-43975D01*
X73316Y-43767D01*
X73316Y-44215D01*
X72526Y-45005D01*
X71653Y-45005D01*
X71627Y-45011D01*
X71600Y-45011D01*
X71148Y-45100D01*
X71080Y-45129D01*
X71051Y-45141D01*
X70668Y-45397D01*
X70631Y-45434D01*
X70594Y-45471D01*
X70338Y-45854D01*
X70297Y-45952D01*
X70207Y-46404D01*
X70207Y-46430D01*
X70202Y-46456D01*
X70202Y-48116D01*
X69226Y-49092D01*
X69226Y-48947D01*
X69226Y-48848D01*
X69226Y-47509D01*
X69226Y-36742D01*
X69226Y-36643D01*
X69226Y-35304D01*
X69188Y-35212D01*
X69118Y-35142D01*
X69026Y-35104D01*
X68926Y-35104D01*
X67587Y-35104D01*
X67495Y-35142D01*
X67425Y-35212D01*
X67387Y-35304D01*
X67387Y-35403D01*
X67387Y-36742D01*
X67425Y-36834D01*
X67495Y-36905D01*
X67587Y-36943D01*
X67687Y-36943D01*
X69026Y-36943D01*
X69118Y-36905D01*
X69188Y-36834D01*
X69226Y-36742D01*
X69226Y-47509D01*
X69188Y-47417D01*
X69118Y-47346D01*
X69026Y-47308D01*
X68926Y-47308D01*
X67587Y-47308D01*
X67495Y-47346D01*
X67425Y-47417D01*
X67387Y-47509D01*
X67387Y-47608D01*
X67387Y-48947D01*
X67425Y-49039D01*
X67495Y-49109D01*
X67587Y-49147D01*
X67687Y-49147D01*
X69026Y-49147D01*
X69118Y-49109D01*
X69188Y-49039D01*
X69226Y-48947D01*
X69226Y-49092D01*
X68195Y-50124D01*
X65759Y-50124D01*
X65759Y-41867D01*
X65694Y-41710D01*
X65575Y-41591D01*
X65486Y-41554D01*
X65486Y-41476D01*
X65421Y-41319D01*
X65302Y-41200D01*
X65146Y-41135D01*
X65129Y-41135D01*
X65074Y-41004D01*
X65001Y-40930D01*
X65129Y-40983D01*
X65299Y-40984D01*
X65455Y-40919D01*
X65574Y-40800D01*
X65639Y-40643D01*
X65639Y-40474D01*
X65575Y-40318D01*
X65455Y-40198D01*
X65299Y-40134D01*
X65214Y-40134D01*
X65110Y-40030D01*
X65013Y-39965D01*
X64898Y-39942D01*
X62555Y-39942D01*
X62440Y-39965D01*
X62401Y-39991D01*
X62343Y-40030D01*
X61997Y-40376D01*
X61351Y-40376D01*
X61236Y-40399D01*
X61197Y-40425D01*
X61139Y-40464D01*
X60523Y-41079D01*
X60458Y-41177D01*
X60435Y-41292D01*
X60435Y-41688D01*
X60432Y-41688D01*
X60318Y-41710D01*
X60220Y-41775D01*
X59940Y-42055D01*
X59875Y-42153D01*
X59852Y-42268D01*
X59852Y-42541D01*
X59875Y-42656D01*
X59940Y-42753D01*
X60128Y-42941D01*
X60225Y-43006D01*
X60340Y-43029D01*
X60617Y-43029D01*
X60617Y-43029D01*
X60732Y-43006D01*
X60732Y-43006D01*
X60829Y-42941D01*
X60922Y-42848D01*
X60935Y-42848D01*
X60944Y-42844D01*
X60954Y-42848D01*
X60970Y-42848D01*
X60995Y-42823D01*
X61027Y-42810D01*
X61092Y-42745D01*
X61092Y-42785D01*
X61154Y-42848D01*
X61171Y-42848D01*
X61222Y-42827D01*
X61249Y-42838D01*
X61304Y-42838D01*
X61367Y-42776D01*
X61367Y-42838D01*
X61394Y-42838D01*
X61402Y-42858D01*
X61472Y-42928D01*
X61492Y-42936D01*
X61492Y-43081D01*
X61530Y-43173D01*
X61600Y-43243D01*
X61692Y-43281D01*
X61791Y-43281D01*
X61948Y-43281D01*
X61949Y-43281D01*
X62047Y-43281D01*
X62204Y-43281D01*
X62205Y-43281D01*
X62303Y-43281D01*
X62460Y-43281D01*
X62461Y-43281D01*
X62559Y-43281D01*
X62717Y-43281D01*
X62808Y-43243D01*
X62879Y-43173D01*
X62917Y-43081D01*
X62917Y-42981D01*
X62917Y-42936D01*
X62936Y-42928D01*
X63007Y-42858D01*
X63015Y-42838D01*
X63159Y-42838D01*
X63229Y-42809D01*
X64775Y-42809D01*
X64775Y-42809D01*
X64890Y-42787D01*
X64890Y-42787D01*
X64988Y-42721D01*
X65333Y-42376D01*
X65418Y-42376D01*
X65574Y-42311D01*
X65694Y-42192D01*
X65759Y-42036D01*
X65759Y-41867D01*
X65759Y-50124D01*
X63738Y-50124D01*
X63738Y-49214D01*
X60670Y-49214D01*
X60670Y-50124D01*
X57021Y-50124D01*
X57021Y-48947D01*
X57021Y-48848D01*
X57021Y-47509D01*
X57021Y-36742D01*
X57021Y-36643D01*
X57021Y-35304D01*
X56983Y-35212D01*
X56913Y-35142D01*
X56821Y-35104D01*
X56722Y-35104D01*
X55383Y-35104D01*
X55291Y-35142D01*
X55220Y-35212D01*
X55182Y-35304D01*
X55182Y-35403D01*
X55182Y-36742D01*
X55220Y-36834D01*
X55291Y-36905D01*
X55383Y-36943D01*
X55482Y-36943D01*
X56821Y-36943D01*
X56913Y-36905D01*
X56983Y-36834D01*
X57021Y-36742D01*
X57021Y-47509D01*
X56983Y-47417D01*
X56913Y-47346D01*
X56821Y-47308D01*
X56722Y-47308D01*
X55383Y-47308D01*
X55291Y-47346D01*
X55220Y-47417D01*
X55182Y-47509D01*
X55182Y-47608D01*
X55182Y-48947D01*
X55220Y-49039D01*
X55291Y-49109D01*
X55383Y-49147D01*
X55482Y-49147D01*
X56821Y-49147D01*
X56913Y-49109D01*
X56983Y-49039D01*
X57021Y-48947D01*
X57021Y-50124D01*
X56214Y-50124D01*
X54206Y-48116D01*
X54206Y-36135D01*
X56214Y-34127D01*
X68195Y-34127D01*
X70202Y-36135D01*
X70202Y-37795D01*
X70207Y-37821D01*
X70207Y-37847D01*
X70297Y-38299D01*
X70338Y-38397D01*
X70594Y-38780D01*
X70631Y-38817D01*
X70668Y-38854D01*
X70668Y-38854D01*
X71051Y-39110D01*
X71051Y-39110D01*
X71080Y-39122D01*
X71148Y-39150D01*
X71600Y-39240D01*
X71627Y-39240D01*
X71653Y-39246D01*
X72526Y-39246D01*
X73549Y-40269D01*
X73549Y-43982D01*
X73549Y-43982D01*
G37*
G54D23*
X73549Y-43982D02*
X73334Y-44197D01*
X73334Y-42637D01*
X73334Y-42614D01*
X73289Y-42388D01*
X73161Y-42197D01*
X73054Y-42125D01*
X73161Y-42054D01*
X73289Y-41863D01*
X73334Y-41637D01*
X73334Y-41614D01*
X73289Y-41388D01*
X73161Y-41197D01*
X73054Y-41125D01*
X73161Y-41054D01*
X73289Y-40863D01*
X73334Y-40637D01*
X73334Y-40614D01*
X73289Y-40388D01*
X73161Y-40197D01*
X72969Y-40069D01*
X72744Y-40024D01*
X72518Y-40069D01*
X72326Y-40197D01*
X72321Y-40205D01*
X72296Y-40144D01*
X72225Y-40074D01*
X72133Y-40035D01*
X72034Y-40035D01*
X71354Y-40035D01*
X71262Y-40074D01*
X71192Y-40144D01*
X71154Y-40236D01*
X71154Y-40335D01*
X71154Y-41015D01*
X71192Y-41107D01*
X71262Y-41177D01*
X71323Y-41203D01*
X71199Y-41388D01*
X71154Y-41614D01*
X71154Y-41637D01*
X71199Y-41863D01*
X71326Y-42054D01*
X71433Y-42125D01*
X71326Y-42197D01*
X71199Y-42388D01*
X71154Y-42614D01*
X71154Y-42637D01*
X71199Y-42863D01*
X71326Y-43054D01*
X71433Y-43125D01*
X71326Y-43197D01*
X71199Y-43388D01*
X71154Y-43614D01*
X71154Y-43637D01*
X71199Y-43863D01*
X71326Y-44054D01*
X71518Y-44182D01*
X71744Y-44227D01*
X71969Y-44182D01*
X72161Y-44054D01*
X72246Y-43927D01*
X72268Y-43975D01*
X72438Y-44130D01*
X72602Y-44198D01*
X72694Y-44151D01*
X72694Y-43675D01*
X72686Y-43675D01*
X72686Y-43575D01*
X72694Y-43575D01*
X72694Y-43568D01*
X72794Y-43568D01*
X72794Y-43575D01*
X73269Y-43575D01*
X73316Y-43484D01*
X73219Y-43276D01*
X73054Y-43125D01*
X73161Y-43054D01*
X73289Y-42863D01*
X73334Y-42637D01*
X73334Y-44197D01*
X73316Y-44215D01*
X73316Y-43767D01*
X73269Y-43675D01*
X72794Y-43675D01*
X72794Y-44151D01*
X72885Y-44198D01*
X73049Y-44130D01*
X73219Y-43975D01*
X73316Y-43767D01*
X73316Y-44215D01*
X72526Y-45005D01*
X71653Y-45005D01*
X71627Y-45011D01*
X71600Y-45011D01*
X71148Y-45100D01*
X71080Y-45129D01*
X71051Y-45141D01*
X70668Y-45397D01*
X70631Y-45434D01*
X70594Y-45471D01*
X70338Y-45854D01*
X70297Y-45952D01*
X70207Y-46404D01*
X70207Y-46430D01*
X70202Y-46456D01*
X70202Y-48116D01*
X69226Y-49092D01*
X69226Y-48947D01*
X69226Y-48848D01*
X69226Y-47509D01*
X69226Y-36742D01*
X69226Y-36643D01*
X69226Y-35304D01*
X69188Y-35212D01*
X69118Y-35142D01*
X69026Y-35104D01*
X68926Y-35104D01*
X67587Y-35104D01*
X67495Y-35142D01*
X67425Y-35212D01*
X67387Y-35304D01*
X67387Y-35403D01*
X67387Y-36742D01*
X67425Y-36834D01*
X67495Y-36905D01*
X67587Y-36943D01*
X67687Y-36943D01*
X69026Y-36943D01*
X69118Y-36905D01*
X69188Y-36834D01*
X69226Y-36742D01*
X69226Y-47509D01*
X69188Y-47417D01*
X69118Y-47346D01*
X69026Y-47308D01*
X68926Y-47308D01*
X67587Y-47308D01*
X67495Y-47346D01*
X67425Y-47417D01*
X67387Y-47509D01*
X67387Y-47608D01*
X67387Y-48947D01*
X67425Y-49039D01*
X67495Y-49109D01*
X67587Y-49147D01*
X67687Y-49147D01*
X69026Y-49147D01*
X69118Y-49109D01*
X69188Y-49039D01*
X69226Y-48947D01*
X69226Y-49092D01*
X68195Y-50124D01*
X65759Y-50124D01*
X65759Y-41867D01*
X65694Y-41710D01*
X65575Y-41591D01*
X65486Y-41554D01*
X65486Y-41476D01*
X65421Y-41319D01*
X65302Y-41200D01*
X65146Y-41135D01*
X65129Y-41135D01*
X65074Y-41004D01*
X65001Y-40930D01*
X65129Y-40983D01*
X65299Y-40984D01*
X65455Y-40919D01*
X65574Y-40800D01*
X65639Y-40643D01*
X65639Y-40474D01*
X65575Y-40318D01*
X65455Y-40198D01*
X65299Y-40134D01*
X65214Y-40134D01*
X65110Y-40030D01*
X65013Y-39965D01*
X64898Y-39942D01*
X62555Y-39942D01*
X62440Y-39965D01*
X62401Y-39991D01*
X62343Y-40030D01*
X61997Y-40376D01*
X61351Y-40376D01*
X61236Y-40399D01*
X61197Y-40425D01*
X61139Y-40464D01*
X60523Y-41079D01*
X60458Y-41177D01*
X60435Y-41292D01*
X60435Y-41688D01*
X60432Y-41688D01*
X60318Y-41710D01*
X60220Y-41775D01*
X59940Y-42055D01*
X59875Y-42153D01*
X59852Y-42268D01*
X59852Y-42541D01*
X59875Y-42656D01*
X59940Y-42753D01*
X60128Y-42941D01*
X60225Y-43006D01*
X60340Y-43029D01*
X60617Y-43029D01*
X60617Y-43029D01*
X60732Y-43006D01*
X60732Y-43006D01*
X60829Y-42941D01*
X60922Y-42848D01*
X60935Y-42848D01*
X60944Y-42844D01*
X60954Y-42848D01*
X60970Y-42848D01*
X60995Y-42823D01*
X61027Y-42810D01*
X61092Y-42745D01*
X61092Y-42785D01*
X61154Y-42848D01*
X61171Y-42848D01*
X61222Y-42827D01*
X61249Y-42838D01*
X61304Y-42838D01*
X61367Y-42776D01*
X61367Y-42838D01*
X61394Y-42838D01*
X61402Y-42858D01*
X61472Y-42928D01*
X61492Y-42936D01*
X61492Y-43081D01*
X61530Y-43173D01*
X61600Y-43243D01*
X61692Y-43281D01*
X61791Y-43281D01*
X61948Y-43281D01*
X61949Y-43281D01*
X62047Y-43281D01*
X62204Y-43281D01*
X62205Y-43281D01*
X62303Y-43281D01*
X62460Y-43281D01*
X62461Y-43281D01*
X62559Y-43281D01*
X62717Y-43281D01*
X62808Y-43243D01*
X62879Y-43173D01*
X62917Y-43081D01*
X62917Y-42981D01*
X62917Y-42936D01*
X62936Y-42928D01*
X63007Y-42858D01*
X63015Y-42838D01*
X63159Y-42838D01*
X63229Y-42809D01*
X64775Y-42809D01*
X64775Y-42809D01*
X64890Y-42787D01*
X64890Y-42787D01*
X64988Y-42721D01*
X65333Y-42376D01*
X65418Y-42376D01*
X65574Y-42311D01*
X65694Y-42192D01*
X65759Y-42036D01*
X65759Y-41867D01*
X65759Y-50124D01*
X63738Y-50124D01*
X63738Y-49214D01*
X60670Y-49214D01*
X60670Y-50124D01*
X57021Y-50124D01*
X57021Y-48947D01*
X57021Y-48848D01*
X57021Y-47509D01*
X57021Y-36742D01*
X57021Y-36643D01*
X57021Y-35304D01*
X56983Y-35212D01*
X56913Y-35142D01*
X56821Y-35104D01*
X56722Y-35104D01*
X55383Y-35104D01*
X55291Y-35142D01*
X55220Y-35212D01*
X55182Y-35304D01*
X55182Y-35403D01*
X55182Y-36742D01*
X55220Y-36834D01*
X55291Y-36905D01*
X55383Y-36943D01*
X55482Y-36943D01*
X56821Y-36943D01*
X56913Y-36905D01*
X56983Y-36834D01*
X57021Y-36742D01*
X57021Y-47509D01*
X56983Y-47417D01*
X56913Y-47346D01*
X56821Y-47308D01*
X56722Y-47308D01*
X55383Y-47308D01*
X55291Y-47346D01*
X55220Y-47417D01*
X55182Y-47509D01*
X55182Y-47608D01*
X55182Y-48947D01*
X55220Y-49039D01*
X55291Y-49109D01*
X55383Y-49147D01*
X55482Y-49147D01*
X56821Y-49147D01*
X56913Y-49109D01*
X56983Y-49039D01*
X57021Y-48947D01*
X57021Y-50124D01*
X56214Y-50124D01*
X54206Y-48116D01*
X54206Y-36135D01*
X56214Y-34127D01*
X68195Y-34127D01*
X70202Y-36135D01*
X70202Y-37795D01*
X70207Y-37821D01*
X70207Y-37847D01*
X70297Y-38299D01*
X70338Y-38397D01*
X70594Y-38780D01*
X70631Y-38817D01*
X70668Y-38854D01*
X70668Y-38854D01*
X71051Y-39110D01*
X71051Y-39110D01*
X71080Y-39122D01*
X71148Y-39150D01*
X71600Y-39240D01*
X71627Y-39240D01*
X71653Y-39246D01*
X72526Y-39246D01*
X73549Y-40269D01*
X73549Y-43982D01*
M02*
