%FSLAX34Y34*%
G04 Gerber Fmt 3.4, Leading zero omitted, Abs format*
G04 (created by PCBNEW (2014-03-19 BZR 4756)-product) date Sat 21 Jun 2014 18:27:49 BST*
%MOIN*%
G01*
G70*
G90*
G04 APERTURE LIST*
%ADD10C,0.005906*%
%ADD11R,0.023600X0.015700*%
%ADD12R,0.015700X0.011800*%
%ADD13R,0.068000X0.068000*%
%ADD14O,0.068000X0.068000*%
%ADD15R,0.027600X0.039400*%
%ADD16R,0.133900X0.133900*%
%ADD17C,0.035000*%
%ADD18C,0.010000*%
G04 APERTURE END LIST*
G54D10*
G54D11*
X65708Y-39448D03*
X65708Y-39802D03*
X65708Y-40570D03*
X65708Y-40216D03*
G54D12*
X65748Y-42027D03*
X65748Y-42263D03*
X69488Y-42243D03*
X69488Y-42007D03*
G54D13*
X71744Y-40625D03*
G54D14*
X72744Y-40625D03*
X71744Y-41625D03*
X72744Y-41625D03*
X71744Y-42625D03*
X72744Y-42625D03*
X71744Y-43625D03*
X72744Y-43625D03*
G54D15*
X64330Y-39559D03*
X64705Y-40559D03*
X63955Y-40559D03*
G54D10*
G36*
X68523Y-43287D02*
X68523Y-43169D01*
X69153Y-43169D01*
X69153Y-43287D01*
X68523Y-43287D01*
X68523Y-43287D01*
G37*
G36*
X68523Y-43061D02*
X68523Y-42942D01*
X69153Y-42942D01*
X69153Y-43061D01*
X68523Y-43061D01*
X68523Y-43061D01*
G37*
G36*
X68523Y-42805D02*
X68523Y-42687D01*
X69153Y-42687D01*
X69153Y-42805D01*
X68523Y-42805D01*
X68523Y-42805D01*
G37*
G36*
X68523Y-42549D02*
X68523Y-42431D01*
X69153Y-42431D01*
X69153Y-42549D01*
X68523Y-42549D01*
X68523Y-42549D01*
G37*
G36*
X68523Y-42293D02*
X68523Y-42175D01*
X69153Y-42175D01*
X69153Y-42293D01*
X68523Y-42293D01*
X68523Y-42293D01*
G37*
G36*
X68523Y-42037D02*
X68523Y-41919D01*
X69153Y-41919D01*
X69153Y-42037D01*
X68523Y-42037D01*
X68523Y-42037D01*
G37*
G36*
X66083Y-41013D02*
X66083Y-40895D01*
X66713Y-40895D01*
X66713Y-41013D01*
X66083Y-41013D01*
X66083Y-41013D01*
G37*
G36*
X66083Y-41269D02*
X66083Y-41151D01*
X66713Y-41151D01*
X66713Y-41269D01*
X66083Y-41269D01*
X66083Y-41269D01*
G37*
G36*
X66083Y-41525D02*
X66083Y-41407D01*
X66713Y-41407D01*
X66713Y-41525D01*
X66083Y-41525D01*
X66083Y-41525D01*
G37*
G36*
X66083Y-41781D02*
X66083Y-41663D01*
X66713Y-41663D01*
X66713Y-41781D01*
X66083Y-41781D01*
X66083Y-41781D01*
G37*
G36*
X68523Y-41781D02*
X68523Y-41663D01*
X69153Y-41663D01*
X69153Y-41781D01*
X68523Y-41781D01*
X68523Y-41781D01*
G37*
G36*
X68523Y-41525D02*
X68523Y-41407D01*
X69153Y-41407D01*
X69153Y-41525D01*
X68523Y-41525D01*
X68523Y-41525D01*
G37*
G36*
X68523Y-41269D02*
X68523Y-41151D01*
X69153Y-41151D01*
X69153Y-41269D01*
X68523Y-41269D01*
X68523Y-41269D01*
G37*
G36*
X68523Y-41013D02*
X68523Y-40895D01*
X69153Y-40895D01*
X69153Y-41013D01*
X68523Y-41013D01*
X68523Y-41013D01*
G37*
G36*
X66083Y-42037D02*
X66083Y-41919D01*
X66713Y-41919D01*
X66713Y-42037D01*
X66083Y-42037D01*
X66083Y-42037D01*
G37*
G36*
X66083Y-42293D02*
X66083Y-42175D01*
X66713Y-42175D01*
X66713Y-42293D01*
X66083Y-42293D01*
X66083Y-42293D01*
G37*
G36*
X66083Y-42549D02*
X66083Y-42431D01*
X66713Y-42431D01*
X66713Y-42549D01*
X66083Y-42549D01*
X66083Y-42549D01*
G37*
G36*
X66083Y-42805D02*
X66083Y-42687D01*
X66713Y-42687D01*
X66713Y-42805D01*
X66083Y-42805D01*
X66083Y-42805D01*
G37*
G36*
X66083Y-43061D02*
X66083Y-42942D01*
X66713Y-42942D01*
X66713Y-43061D01*
X66083Y-43061D01*
X66083Y-43061D01*
G37*
G36*
X66083Y-43316D02*
X66083Y-43198D01*
X66713Y-43198D01*
X66713Y-43316D01*
X66083Y-43316D01*
X66083Y-43316D01*
G37*
G54D16*
X56102Y-36023D03*
X68307Y-36023D03*
X68307Y-48228D03*
X56102Y-48228D03*
G54D17*
X65214Y-40559D03*
X64270Y-41032D03*
X64714Y-41244D03*
X65061Y-41560D03*
X65334Y-41951D03*
X60479Y-42402D03*
X62704Y-40568D03*
G54D18*
X64330Y-39559D02*
X64618Y-39559D01*
X65708Y-39448D02*
X64728Y-39448D01*
X64728Y-39448D02*
X64618Y-39559D01*
X68373Y-40625D02*
X67196Y-39448D01*
X67196Y-39448D02*
X65708Y-39448D01*
X71253Y-40625D02*
X68373Y-40625D01*
X68373Y-41978D02*
X68373Y-40625D01*
X68838Y-41978D02*
X68373Y-41978D01*
X69259Y-42007D02*
X69229Y-41978D01*
X69229Y-41978D02*
X68838Y-41978D01*
X71744Y-40625D02*
X71253Y-40625D01*
X69488Y-42007D02*
X69259Y-42007D01*
X68838Y-42234D02*
X68323Y-42234D01*
X68323Y-42234D02*
X67090Y-41001D01*
X67090Y-41001D02*
X67090Y-40762D01*
X67090Y-40762D02*
X66130Y-39802D01*
X66130Y-39802D02*
X65708Y-39802D01*
X65748Y-42263D02*
X65519Y-42263D01*
X63955Y-40559D02*
X63944Y-40569D01*
X63944Y-40569D02*
X63944Y-41173D01*
X63944Y-41173D02*
X65047Y-42276D01*
X65047Y-42276D02*
X65506Y-42276D01*
X65506Y-42276D02*
X65519Y-42263D01*
X65708Y-39802D02*
X65708Y-39988D01*
X63955Y-40559D02*
X64243Y-40559D01*
X64243Y-40559D02*
X64243Y-40451D01*
X64243Y-40451D02*
X64706Y-39988D01*
X64706Y-39988D02*
X65708Y-39988D01*
X65708Y-40216D02*
X65708Y-39988D01*
X69488Y-42243D02*
X69259Y-42243D01*
X68838Y-42234D02*
X69249Y-42234D01*
X69249Y-42234D02*
X69259Y-42243D01*
X72744Y-43625D02*
X72253Y-43625D01*
X69488Y-42243D02*
X69488Y-42453D01*
X69488Y-42453D02*
X70170Y-43135D01*
X70170Y-43135D02*
X71966Y-43135D01*
X71966Y-43135D02*
X72253Y-43422D01*
X72253Y-43422D02*
X72253Y-43625D01*
X65708Y-40570D02*
X65976Y-40570D01*
X66863Y-41978D02*
X66863Y-40833D01*
X66863Y-40833D02*
X66600Y-40570D01*
X66600Y-40570D02*
X65976Y-40570D01*
X66813Y-41978D02*
X66863Y-41978D01*
X66398Y-41978D02*
X66813Y-41978D01*
X66398Y-42234D02*
X66863Y-42234D01*
X66863Y-42234D02*
X66863Y-41978D01*
X65708Y-40570D02*
X65440Y-40570D01*
X65214Y-40559D02*
X65428Y-40559D01*
X65428Y-40559D02*
X65440Y-40570D01*
X64849Y-40559D02*
X65214Y-40559D01*
X64705Y-40559D02*
X64849Y-40559D01*
X65748Y-42027D02*
X65976Y-42027D01*
X66398Y-41978D02*
X66025Y-41978D01*
X66025Y-41978D02*
X65976Y-42027D01*
X72253Y-40625D02*
X72253Y-41008D01*
X72253Y-41008D02*
X72146Y-41116D01*
X72146Y-41116D02*
X70224Y-41116D01*
X70224Y-41116D02*
X70062Y-40954D01*
X70062Y-40954D02*
X68838Y-40954D01*
X72744Y-40625D02*
X72253Y-40625D01*
X71744Y-41625D02*
X70451Y-41625D01*
X70451Y-41625D02*
X70035Y-41210D01*
X70035Y-41210D02*
X68838Y-41210D01*
X72253Y-41625D02*
X72253Y-41829D01*
X72253Y-41829D02*
X71957Y-42125D01*
X71957Y-42125D02*
X70533Y-42125D01*
X70533Y-42125D02*
X69873Y-41466D01*
X69873Y-41466D02*
X68838Y-41466D01*
X72744Y-41625D02*
X72253Y-41625D01*
X71744Y-42625D02*
X70743Y-42625D01*
X70743Y-42625D02*
X69840Y-41722D01*
X69840Y-41722D02*
X68838Y-41722D01*
X72744Y-42625D02*
X72744Y-43116D01*
X68838Y-42490D02*
X68373Y-42490D01*
X68373Y-42490D02*
X68373Y-43349D01*
X68373Y-43349D02*
X69142Y-44119D01*
X69142Y-44119D02*
X72966Y-44119D01*
X72966Y-44119D02*
X73253Y-43832D01*
X73253Y-43832D02*
X73253Y-43422D01*
X73253Y-43422D02*
X72947Y-43116D01*
X72947Y-43116D02*
X72744Y-43116D01*
X68838Y-42746D02*
X69383Y-42746D01*
X69383Y-42746D02*
X70263Y-43625D01*
X70263Y-43625D02*
X71744Y-43625D01*
X66398Y-40954D02*
X65933Y-40954D01*
X65933Y-40954D02*
X65897Y-40919D01*
X65897Y-40919D02*
X64383Y-40919D01*
X64383Y-40919D02*
X64270Y-41032D01*
X66398Y-41210D02*
X64748Y-41210D01*
X64748Y-41210D02*
X64714Y-41244D01*
X66398Y-41466D02*
X65154Y-41466D01*
X65154Y-41466D02*
X65061Y-41560D01*
X66398Y-41722D02*
X65563Y-41722D01*
X65563Y-41722D02*
X65334Y-41951D01*
X66863Y-42490D02*
X66863Y-43403D01*
X66863Y-43403D02*
X66800Y-43467D01*
X66800Y-43467D02*
X61870Y-43467D01*
X61870Y-43467D02*
X60805Y-42402D01*
X60805Y-42402D02*
X60479Y-42402D01*
X66398Y-42490D02*
X66863Y-42490D01*
X66398Y-42746D02*
X64882Y-42746D01*
X64882Y-42746D02*
X62704Y-40568D01*
G54D10*
G36*
X72801Y-43675D02*
X72794Y-43675D01*
X72794Y-43683D01*
X72694Y-43683D01*
X72694Y-43675D01*
X72686Y-43675D01*
X72686Y-43575D01*
X72694Y-43575D01*
X72694Y-43568D01*
X72794Y-43568D01*
X72794Y-43575D01*
X72801Y-43575D01*
X72801Y-43675D01*
X72801Y-43675D01*
G37*
G54D18*
X72801Y-43675D02*
X72794Y-43675D01*
X72794Y-43683D01*
X72694Y-43683D01*
X72694Y-43675D01*
X72686Y-43675D01*
X72686Y-43575D01*
X72694Y-43575D01*
X72694Y-43568D01*
X72794Y-43568D01*
X72794Y-43575D01*
X72801Y-43575D01*
X72801Y-43675D01*
G54D10*
G36*
X73549Y-43982D02*
X72526Y-45005D01*
X71653Y-45005D01*
X71627Y-45011D01*
X71600Y-45011D01*
X71148Y-45100D01*
X71080Y-45129D01*
X71051Y-45141D01*
X70668Y-45397D01*
X70631Y-45434D01*
X70594Y-45471D01*
X70338Y-45854D01*
X70297Y-45952D01*
X70207Y-46404D01*
X70207Y-46430D01*
X70202Y-46456D01*
X70202Y-48116D01*
X69226Y-49092D01*
X69226Y-48947D01*
X69226Y-48848D01*
X69226Y-47509D01*
X69188Y-47417D01*
X69118Y-47346D01*
X69026Y-47308D01*
X68926Y-47308D01*
X67587Y-47308D01*
X67495Y-47346D01*
X67425Y-47417D01*
X67387Y-47509D01*
X67387Y-47608D01*
X67387Y-48947D01*
X67425Y-49039D01*
X67495Y-49109D01*
X67587Y-49147D01*
X67687Y-49147D01*
X69026Y-49147D01*
X69118Y-49109D01*
X69188Y-49039D01*
X69226Y-48947D01*
X69226Y-49092D01*
X68195Y-50124D01*
X67163Y-50124D01*
X67163Y-43403D01*
X67163Y-42490D01*
X67140Y-42375D01*
X67131Y-42362D01*
X67140Y-42349D01*
X67163Y-42234D01*
X67163Y-41978D01*
X67163Y-40833D01*
X67140Y-40718D01*
X67140Y-40718D01*
X67075Y-40621D01*
X66812Y-40358D01*
X66715Y-40293D01*
X66600Y-40270D01*
X66076Y-40270D01*
X66076Y-40114D01*
X66076Y-40088D01*
X66044Y-40009D01*
X66076Y-39931D01*
X66076Y-39904D01*
X66014Y-39842D01*
X65758Y-39842D01*
X65758Y-39950D01*
X65758Y-40068D01*
X65758Y-40177D01*
X66014Y-40177D01*
X66076Y-40114D01*
X66076Y-40270D01*
X66028Y-40270D01*
X66014Y-40255D01*
X65909Y-40255D01*
X65876Y-40242D01*
X65776Y-40242D01*
X65650Y-40242D01*
X65650Y-40177D01*
X65658Y-40177D01*
X65658Y-40068D01*
X65658Y-39950D01*
X65658Y-39842D01*
X65403Y-39842D01*
X65340Y-39904D01*
X65340Y-39931D01*
X65373Y-40009D01*
X65340Y-40088D01*
X65340Y-40114D01*
X65392Y-40166D01*
X65378Y-40166D01*
X65299Y-40134D01*
X65130Y-40133D01*
X65016Y-40181D01*
X64985Y-40150D01*
X64893Y-40112D01*
X64793Y-40112D01*
X64517Y-40112D01*
X64426Y-40150D01*
X64355Y-40220D01*
X64330Y-40280D01*
X64305Y-40220D01*
X64235Y-40150D01*
X64143Y-40112D01*
X64068Y-40112D01*
X64005Y-40174D01*
X64005Y-40509D01*
X64013Y-40509D01*
X64013Y-40609D01*
X64005Y-40609D01*
X64005Y-40616D01*
X63905Y-40616D01*
X63905Y-40609D01*
X63905Y-40509D01*
X63905Y-40174D01*
X63843Y-40112D01*
X63767Y-40112D01*
X63676Y-40150D01*
X63605Y-40220D01*
X63567Y-40312D01*
X63567Y-40411D01*
X63567Y-40446D01*
X63630Y-40509D01*
X63905Y-40509D01*
X63905Y-40609D01*
X63630Y-40609D01*
X63567Y-40671D01*
X63567Y-40706D01*
X63567Y-40805D01*
X63605Y-40897D01*
X63676Y-40967D01*
X63767Y-41006D01*
X63843Y-41006D01*
X63845Y-41004D01*
X63844Y-41117D01*
X63909Y-41273D01*
X64028Y-41393D01*
X64185Y-41457D01*
X64342Y-41458D01*
X64353Y-41484D01*
X64473Y-41604D01*
X64629Y-41669D01*
X64646Y-41669D01*
X64700Y-41800D01*
X64820Y-41920D01*
X64909Y-41957D01*
X64909Y-42035D01*
X64973Y-42191D01*
X65093Y-42311D01*
X65249Y-42376D01*
X65418Y-42376D01*
X65420Y-42375D01*
X65450Y-42446D01*
X65006Y-42446D01*
X63129Y-40568D01*
X63129Y-40483D01*
X63064Y-40327D01*
X62945Y-40208D01*
X62789Y-40143D01*
X62619Y-40143D01*
X62463Y-40207D01*
X62344Y-40327D01*
X62279Y-40483D01*
X62279Y-40652D01*
X62343Y-40808D01*
X62463Y-40928D01*
X62619Y-40993D01*
X62704Y-40993D01*
X64669Y-42958D01*
X64669Y-42958D01*
X64767Y-43023D01*
X64882Y-43046D01*
X65833Y-43046D01*
X65833Y-43110D01*
X65841Y-43129D01*
X65833Y-43149D01*
X65833Y-43167D01*
X61994Y-43167D01*
X61018Y-42190D01*
X60920Y-42125D01*
X60805Y-42102D01*
X60780Y-42102D01*
X60720Y-42042D01*
X60563Y-41977D01*
X60394Y-41977D01*
X60238Y-42042D01*
X60118Y-42161D01*
X60054Y-42317D01*
X60053Y-42486D01*
X60118Y-42643D01*
X60237Y-42762D01*
X60394Y-42827D01*
X60563Y-42827D01*
X60719Y-42763D01*
X60730Y-42751D01*
X61658Y-43679D01*
X61716Y-43718D01*
X61755Y-43744D01*
X61755Y-43744D01*
X61870Y-43767D01*
X66800Y-43767D01*
X66800Y-43767D01*
X66914Y-43744D01*
X66914Y-43744D01*
X67012Y-43679D01*
X67075Y-43616D01*
X67075Y-43616D01*
X67140Y-43518D01*
X67163Y-43403D01*
X67163Y-43403D01*
X67163Y-50124D01*
X57021Y-50124D01*
X57021Y-48947D01*
X57021Y-48848D01*
X57021Y-47509D01*
X57021Y-36742D01*
X57021Y-36643D01*
X57021Y-35304D01*
X56983Y-35212D01*
X56913Y-35142D01*
X56821Y-35104D01*
X56722Y-35104D01*
X55383Y-35104D01*
X55291Y-35142D01*
X55220Y-35212D01*
X55182Y-35304D01*
X55182Y-35403D01*
X55182Y-36742D01*
X55220Y-36834D01*
X55291Y-36905D01*
X55383Y-36943D01*
X55482Y-36943D01*
X56821Y-36943D01*
X56913Y-36905D01*
X56983Y-36834D01*
X57021Y-36742D01*
X57021Y-47509D01*
X56983Y-47417D01*
X56913Y-47346D01*
X56821Y-47308D01*
X56722Y-47308D01*
X55383Y-47308D01*
X55291Y-47346D01*
X55220Y-47417D01*
X55182Y-47509D01*
X55182Y-47608D01*
X55182Y-48947D01*
X55220Y-49039D01*
X55291Y-49109D01*
X55383Y-49147D01*
X55482Y-49147D01*
X56821Y-49147D01*
X56913Y-49109D01*
X56983Y-49039D01*
X57021Y-48947D01*
X57021Y-50124D01*
X56214Y-50124D01*
X54206Y-48116D01*
X54206Y-36135D01*
X56214Y-34127D01*
X68195Y-34127D01*
X70202Y-36135D01*
X70202Y-37795D01*
X70207Y-37821D01*
X70207Y-37847D01*
X70297Y-38299D01*
X70338Y-38397D01*
X70594Y-38780D01*
X70631Y-38817D01*
X70668Y-38854D01*
X70668Y-38854D01*
X71051Y-39110D01*
X71051Y-39110D01*
X71080Y-39122D01*
X71148Y-39150D01*
X71600Y-39240D01*
X71627Y-39240D01*
X71653Y-39246D01*
X72526Y-39246D01*
X73549Y-40269D01*
X73549Y-43399D01*
X73531Y-43308D01*
X73466Y-43210D01*
X73466Y-43210D01*
X73220Y-42965D01*
X73289Y-42863D01*
X73334Y-42637D01*
X73334Y-42614D01*
X73289Y-42388D01*
X73161Y-42197D01*
X73054Y-42125D01*
X73161Y-42054D01*
X73289Y-41863D01*
X73334Y-41637D01*
X73334Y-41614D01*
X73289Y-41388D01*
X73161Y-41197D01*
X73054Y-41125D01*
X73161Y-41054D01*
X73289Y-40863D01*
X73334Y-40637D01*
X73334Y-40614D01*
X73289Y-40388D01*
X73161Y-40197D01*
X72969Y-40069D01*
X72744Y-40024D01*
X72518Y-40069D01*
X72326Y-40197D01*
X72321Y-40205D01*
X72296Y-40144D01*
X72225Y-40074D01*
X72133Y-40035D01*
X72034Y-40035D01*
X71354Y-40035D01*
X71262Y-40074D01*
X71192Y-40144D01*
X71154Y-40236D01*
X71154Y-40325D01*
X69226Y-40325D01*
X69226Y-36742D01*
X69226Y-36643D01*
X69226Y-35304D01*
X69188Y-35212D01*
X69118Y-35142D01*
X69026Y-35104D01*
X68926Y-35104D01*
X67587Y-35104D01*
X67495Y-35142D01*
X67425Y-35212D01*
X67387Y-35304D01*
X67387Y-35403D01*
X67387Y-36742D01*
X67425Y-36834D01*
X67495Y-36905D01*
X67587Y-36943D01*
X67687Y-36943D01*
X69026Y-36943D01*
X69118Y-36905D01*
X69188Y-36834D01*
X69226Y-36742D01*
X69226Y-40325D01*
X68497Y-40325D01*
X67408Y-39236D01*
X67310Y-39171D01*
X67196Y-39148D01*
X65945Y-39148D01*
X65876Y-39120D01*
X65776Y-39120D01*
X65540Y-39120D01*
X65472Y-39148D01*
X64728Y-39148D01*
X64629Y-39168D01*
X64610Y-39150D01*
X64518Y-39112D01*
X64418Y-39112D01*
X64142Y-39112D01*
X64051Y-39150D01*
X63980Y-39220D01*
X63942Y-39312D01*
X63942Y-39411D01*
X63942Y-39805D01*
X63980Y-39897D01*
X64051Y-39967D01*
X64142Y-40006D01*
X64242Y-40006D01*
X64518Y-40006D01*
X64610Y-39967D01*
X64680Y-39897D01*
X64703Y-39842D01*
X64703Y-39842D01*
X64733Y-39836D01*
X64733Y-39836D01*
X64830Y-39771D01*
X64853Y-39748D01*
X65388Y-39748D01*
X65403Y-39763D01*
X65507Y-39763D01*
X65540Y-39777D01*
X65640Y-39777D01*
X65876Y-39777D01*
X65909Y-39763D01*
X66014Y-39763D01*
X66028Y-39748D01*
X67071Y-39748D01*
X68073Y-40750D01*
X68073Y-41978D01*
X68095Y-42093D01*
X68160Y-42190D01*
X68226Y-42234D01*
X68160Y-42278D01*
X68095Y-42375D01*
X68073Y-42490D01*
X68073Y-43349D01*
X68095Y-43464D01*
X68160Y-43562D01*
X68930Y-44331D01*
X69027Y-44396D01*
X69027Y-44396D01*
X69142Y-44419D01*
X72966Y-44419D01*
X72966Y-44419D01*
X73081Y-44396D01*
X73081Y-44396D01*
X73178Y-44331D01*
X73466Y-44044D01*
X73466Y-44044D01*
X73531Y-43947D01*
X73549Y-43855D01*
X73549Y-43982D01*
X73549Y-43982D01*
G37*
G54D18*
X73549Y-43982D02*
X72526Y-45005D01*
X71653Y-45005D01*
X71627Y-45011D01*
X71600Y-45011D01*
X71148Y-45100D01*
X71080Y-45129D01*
X71051Y-45141D01*
X70668Y-45397D01*
X70631Y-45434D01*
X70594Y-45471D01*
X70338Y-45854D01*
X70297Y-45952D01*
X70207Y-46404D01*
X70207Y-46430D01*
X70202Y-46456D01*
X70202Y-48116D01*
X69226Y-49092D01*
X69226Y-48947D01*
X69226Y-48848D01*
X69226Y-47509D01*
X69188Y-47417D01*
X69118Y-47346D01*
X69026Y-47308D01*
X68926Y-47308D01*
X67587Y-47308D01*
X67495Y-47346D01*
X67425Y-47417D01*
X67387Y-47509D01*
X67387Y-47608D01*
X67387Y-48947D01*
X67425Y-49039D01*
X67495Y-49109D01*
X67587Y-49147D01*
X67687Y-49147D01*
X69026Y-49147D01*
X69118Y-49109D01*
X69188Y-49039D01*
X69226Y-48947D01*
X69226Y-49092D01*
X68195Y-50124D01*
X67163Y-50124D01*
X67163Y-43403D01*
X67163Y-42490D01*
X67140Y-42375D01*
X67131Y-42362D01*
X67140Y-42349D01*
X67163Y-42234D01*
X67163Y-41978D01*
X67163Y-40833D01*
X67140Y-40718D01*
X67140Y-40718D01*
X67075Y-40621D01*
X66812Y-40358D01*
X66715Y-40293D01*
X66600Y-40270D01*
X66076Y-40270D01*
X66076Y-40114D01*
X66076Y-40088D01*
X66044Y-40009D01*
X66076Y-39931D01*
X66076Y-39904D01*
X66014Y-39842D01*
X65758Y-39842D01*
X65758Y-39950D01*
X65758Y-40068D01*
X65758Y-40177D01*
X66014Y-40177D01*
X66076Y-40114D01*
X66076Y-40270D01*
X66028Y-40270D01*
X66014Y-40255D01*
X65909Y-40255D01*
X65876Y-40242D01*
X65776Y-40242D01*
X65650Y-40242D01*
X65650Y-40177D01*
X65658Y-40177D01*
X65658Y-40068D01*
X65658Y-39950D01*
X65658Y-39842D01*
X65403Y-39842D01*
X65340Y-39904D01*
X65340Y-39931D01*
X65373Y-40009D01*
X65340Y-40088D01*
X65340Y-40114D01*
X65392Y-40166D01*
X65378Y-40166D01*
X65299Y-40134D01*
X65130Y-40133D01*
X65016Y-40181D01*
X64985Y-40150D01*
X64893Y-40112D01*
X64793Y-40112D01*
X64517Y-40112D01*
X64426Y-40150D01*
X64355Y-40220D01*
X64330Y-40280D01*
X64305Y-40220D01*
X64235Y-40150D01*
X64143Y-40112D01*
X64068Y-40112D01*
X64005Y-40174D01*
X64005Y-40509D01*
X64013Y-40509D01*
X64013Y-40609D01*
X64005Y-40609D01*
X64005Y-40616D01*
X63905Y-40616D01*
X63905Y-40609D01*
X63905Y-40509D01*
X63905Y-40174D01*
X63843Y-40112D01*
X63767Y-40112D01*
X63676Y-40150D01*
X63605Y-40220D01*
X63567Y-40312D01*
X63567Y-40411D01*
X63567Y-40446D01*
X63630Y-40509D01*
X63905Y-40509D01*
X63905Y-40609D01*
X63630Y-40609D01*
X63567Y-40671D01*
X63567Y-40706D01*
X63567Y-40805D01*
X63605Y-40897D01*
X63676Y-40967D01*
X63767Y-41006D01*
X63843Y-41006D01*
X63845Y-41004D01*
X63844Y-41117D01*
X63909Y-41273D01*
X64028Y-41393D01*
X64185Y-41457D01*
X64342Y-41458D01*
X64353Y-41484D01*
X64473Y-41604D01*
X64629Y-41669D01*
X64646Y-41669D01*
X64700Y-41800D01*
X64820Y-41920D01*
X64909Y-41957D01*
X64909Y-42035D01*
X64973Y-42191D01*
X65093Y-42311D01*
X65249Y-42376D01*
X65418Y-42376D01*
X65420Y-42375D01*
X65450Y-42446D01*
X65006Y-42446D01*
X63129Y-40568D01*
X63129Y-40483D01*
X63064Y-40327D01*
X62945Y-40208D01*
X62789Y-40143D01*
X62619Y-40143D01*
X62463Y-40207D01*
X62344Y-40327D01*
X62279Y-40483D01*
X62279Y-40652D01*
X62343Y-40808D01*
X62463Y-40928D01*
X62619Y-40993D01*
X62704Y-40993D01*
X64669Y-42958D01*
X64669Y-42958D01*
X64767Y-43023D01*
X64882Y-43046D01*
X65833Y-43046D01*
X65833Y-43110D01*
X65841Y-43129D01*
X65833Y-43149D01*
X65833Y-43167D01*
X61994Y-43167D01*
X61018Y-42190D01*
X60920Y-42125D01*
X60805Y-42102D01*
X60780Y-42102D01*
X60720Y-42042D01*
X60563Y-41977D01*
X60394Y-41977D01*
X60238Y-42042D01*
X60118Y-42161D01*
X60054Y-42317D01*
X60053Y-42486D01*
X60118Y-42643D01*
X60237Y-42762D01*
X60394Y-42827D01*
X60563Y-42827D01*
X60719Y-42763D01*
X60730Y-42751D01*
X61658Y-43679D01*
X61716Y-43718D01*
X61755Y-43744D01*
X61755Y-43744D01*
X61870Y-43767D01*
X66800Y-43767D01*
X66800Y-43767D01*
X66914Y-43744D01*
X66914Y-43744D01*
X67012Y-43679D01*
X67075Y-43616D01*
X67075Y-43616D01*
X67140Y-43518D01*
X67163Y-43403D01*
X67163Y-43403D01*
X67163Y-50124D01*
X57021Y-50124D01*
X57021Y-48947D01*
X57021Y-48848D01*
X57021Y-47509D01*
X57021Y-36742D01*
X57021Y-36643D01*
X57021Y-35304D01*
X56983Y-35212D01*
X56913Y-35142D01*
X56821Y-35104D01*
X56722Y-35104D01*
X55383Y-35104D01*
X55291Y-35142D01*
X55220Y-35212D01*
X55182Y-35304D01*
X55182Y-35403D01*
X55182Y-36742D01*
X55220Y-36834D01*
X55291Y-36905D01*
X55383Y-36943D01*
X55482Y-36943D01*
X56821Y-36943D01*
X56913Y-36905D01*
X56983Y-36834D01*
X57021Y-36742D01*
X57021Y-47509D01*
X56983Y-47417D01*
X56913Y-47346D01*
X56821Y-47308D01*
X56722Y-47308D01*
X55383Y-47308D01*
X55291Y-47346D01*
X55220Y-47417D01*
X55182Y-47509D01*
X55182Y-47608D01*
X55182Y-48947D01*
X55220Y-49039D01*
X55291Y-49109D01*
X55383Y-49147D01*
X55482Y-49147D01*
X56821Y-49147D01*
X56913Y-49109D01*
X56983Y-49039D01*
X57021Y-48947D01*
X57021Y-50124D01*
X56214Y-50124D01*
X54206Y-48116D01*
X54206Y-36135D01*
X56214Y-34127D01*
X68195Y-34127D01*
X70202Y-36135D01*
X70202Y-37795D01*
X70207Y-37821D01*
X70207Y-37847D01*
X70297Y-38299D01*
X70338Y-38397D01*
X70594Y-38780D01*
X70631Y-38817D01*
X70668Y-38854D01*
X70668Y-38854D01*
X71051Y-39110D01*
X71051Y-39110D01*
X71080Y-39122D01*
X71148Y-39150D01*
X71600Y-39240D01*
X71627Y-39240D01*
X71653Y-39246D01*
X72526Y-39246D01*
X73549Y-40269D01*
X73549Y-43399D01*
X73531Y-43308D01*
X73466Y-43210D01*
X73466Y-43210D01*
X73220Y-42965D01*
X73289Y-42863D01*
X73334Y-42637D01*
X73334Y-42614D01*
X73289Y-42388D01*
X73161Y-42197D01*
X73054Y-42125D01*
X73161Y-42054D01*
X73289Y-41863D01*
X73334Y-41637D01*
X73334Y-41614D01*
X73289Y-41388D01*
X73161Y-41197D01*
X73054Y-41125D01*
X73161Y-41054D01*
X73289Y-40863D01*
X73334Y-40637D01*
X73334Y-40614D01*
X73289Y-40388D01*
X73161Y-40197D01*
X72969Y-40069D01*
X72744Y-40024D01*
X72518Y-40069D01*
X72326Y-40197D01*
X72321Y-40205D01*
X72296Y-40144D01*
X72225Y-40074D01*
X72133Y-40035D01*
X72034Y-40035D01*
X71354Y-40035D01*
X71262Y-40074D01*
X71192Y-40144D01*
X71154Y-40236D01*
X71154Y-40325D01*
X69226Y-40325D01*
X69226Y-36742D01*
X69226Y-36643D01*
X69226Y-35304D01*
X69188Y-35212D01*
X69118Y-35142D01*
X69026Y-35104D01*
X68926Y-35104D01*
X67587Y-35104D01*
X67495Y-35142D01*
X67425Y-35212D01*
X67387Y-35304D01*
X67387Y-35403D01*
X67387Y-36742D01*
X67425Y-36834D01*
X67495Y-36905D01*
X67587Y-36943D01*
X67687Y-36943D01*
X69026Y-36943D01*
X69118Y-36905D01*
X69188Y-36834D01*
X69226Y-36742D01*
X69226Y-40325D01*
X68497Y-40325D01*
X67408Y-39236D01*
X67310Y-39171D01*
X67196Y-39148D01*
X65945Y-39148D01*
X65876Y-39120D01*
X65776Y-39120D01*
X65540Y-39120D01*
X65472Y-39148D01*
X64728Y-39148D01*
X64629Y-39168D01*
X64610Y-39150D01*
X64518Y-39112D01*
X64418Y-39112D01*
X64142Y-39112D01*
X64051Y-39150D01*
X63980Y-39220D01*
X63942Y-39312D01*
X63942Y-39411D01*
X63942Y-39805D01*
X63980Y-39897D01*
X64051Y-39967D01*
X64142Y-40006D01*
X64242Y-40006D01*
X64518Y-40006D01*
X64610Y-39967D01*
X64680Y-39897D01*
X64703Y-39842D01*
X64703Y-39842D01*
X64733Y-39836D01*
X64733Y-39836D01*
X64830Y-39771D01*
X64853Y-39748D01*
X65388Y-39748D01*
X65403Y-39763D01*
X65507Y-39763D01*
X65540Y-39777D01*
X65640Y-39777D01*
X65876Y-39777D01*
X65909Y-39763D01*
X66014Y-39763D01*
X66028Y-39748D01*
X67071Y-39748D01*
X68073Y-40750D01*
X68073Y-41978D01*
X68095Y-42093D01*
X68160Y-42190D01*
X68226Y-42234D01*
X68160Y-42278D01*
X68095Y-42375D01*
X68073Y-42490D01*
X68073Y-43349D01*
X68095Y-43464D01*
X68160Y-43562D01*
X68930Y-44331D01*
X69027Y-44396D01*
X69027Y-44396D01*
X69142Y-44419D01*
X72966Y-44419D01*
X72966Y-44419D01*
X73081Y-44396D01*
X73081Y-44396D01*
X73178Y-44331D01*
X73466Y-44044D01*
X73466Y-44044D01*
X73531Y-43947D01*
X73549Y-43855D01*
X73549Y-43982D01*
M02*
