%FSLAX34Y34*%
G04 Gerber Fmt 3.4, Leading zero omitted, Abs format*
G04 (created by PCBNEW (2014-03-19 BZR 4756)-product) date Sat 21 Jun 2014 18:27:49 BST*
%MOIN*%
G01*
G70*
G90*
G04 APERTURE LIST*
%ADD10C,0.005906*%
%ADD11R,0.023600X0.015700*%
%ADD12R,0.015700X0.011800*%
%ADD13R,0.068000X0.068000*%
%ADD14O,0.068000X0.068000*%
%ADD15R,0.027600X0.039400*%
%ADD16R,0.133900X0.133900*%
G04 APERTURE END LIST*
G54D10*
G54D11*
X65708Y-39448D03*
X65708Y-39802D03*
X65708Y-40570D03*
X65708Y-40216D03*
G54D12*
X65748Y-42027D03*
X65748Y-42263D03*
X69488Y-42243D03*
X69488Y-42007D03*
G54D13*
X71744Y-40625D03*
G54D14*
X72744Y-40625D03*
X71744Y-41625D03*
X72744Y-41625D03*
X71744Y-42625D03*
X72744Y-42625D03*
X71744Y-43625D03*
X72744Y-43625D03*
G54D15*
X64330Y-39559D03*
X64705Y-40559D03*
X63955Y-40559D03*
G54D10*
G36*
X68523Y-43287D02*
X68523Y-43169D01*
X69153Y-43169D01*
X69153Y-43287D01*
X68523Y-43287D01*
X68523Y-43287D01*
G37*
G36*
X68523Y-43061D02*
X68523Y-42942D01*
X69153Y-42942D01*
X69153Y-43061D01*
X68523Y-43061D01*
X68523Y-43061D01*
G37*
G36*
X68523Y-42805D02*
X68523Y-42687D01*
X69153Y-42687D01*
X69153Y-42805D01*
X68523Y-42805D01*
X68523Y-42805D01*
G37*
G36*
X68523Y-42549D02*
X68523Y-42431D01*
X69153Y-42431D01*
X69153Y-42549D01*
X68523Y-42549D01*
X68523Y-42549D01*
G37*
G36*
X68523Y-42293D02*
X68523Y-42175D01*
X69153Y-42175D01*
X69153Y-42293D01*
X68523Y-42293D01*
X68523Y-42293D01*
G37*
G36*
X68523Y-42037D02*
X68523Y-41919D01*
X69153Y-41919D01*
X69153Y-42037D01*
X68523Y-42037D01*
X68523Y-42037D01*
G37*
G36*
X66083Y-41013D02*
X66083Y-40895D01*
X66713Y-40895D01*
X66713Y-41013D01*
X66083Y-41013D01*
X66083Y-41013D01*
G37*
G36*
X66083Y-41269D02*
X66083Y-41151D01*
X66713Y-41151D01*
X66713Y-41269D01*
X66083Y-41269D01*
X66083Y-41269D01*
G37*
G36*
X66083Y-41525D02*
X66083Y-41407D01*
X66713Y-41407D01*
X66713Y-41525D01*
X66083Y-41525D01*
X66083Y-41525D01*
G37*
G36*
X66083Y-41781D02*
X66083Y-41663D01*
X66713Y-41663D01*
X66713Y-41781D01*
X66083Y-41781D01*
X66083Y-41781D01*
G37*
G36*
X68523Y-41781D02*
X68523Y-41663D01*
X69153Y-41663D01*
X69153Y-41781D01*
X68523Y-41781D01*
X68523Y-41781D01*
G37*
G36*
X68523Y-41525D02*
X68523Y-41407D01*
X69153Y-41407D01*
X69153Y-41525D01*
X68523Y-41525D01*
X68523Y-41525D01*
G37*
G36*
X68523Y-41269D02*
X68523Y-41151D01*
X69153Y-41151D01*
X69153Y-41269D01*
X68523Y-41269D01*
X68523Y-41269D01*
G37*
G36*
X68523Y-41013D02*
X68523Y-40895D01*
X69153Y-40895D01*
X69153Y-41013D01*
X68523Y-41013D01*
X68523Y-41013D01*
G37*
G36*
X66083Y-42037D02*
X66083Y-41919D01*
X66713Y-41919D01*
X66713Y-42037D01*
X66083Y-42037D01*
X66083Y-42037D01*
G37*
G36*
X66083Y-42293D02*
X66083Y-42175D01*
X66713Y-42175D01*
X66713Y-42293D01*
X66083Y-42293D01*
X66083Y-42293D01*
G37*
G36*
X66083Y-42549D02*
X66083Y-42431D01*
X66713Y-42431D01*
X66713Y-42549D01*
X66083Y-42549D01*
X66083Y-42549D01*
G37*
G36*
X66083Y-42805D02*
X66083Y-42687D01*
X66713Y-42687D01*
X66713Y-42805D01*
X66083Y-42805D01*
X66083Y-42805D01*
G37*
G36*
X66083Y-43061D02*
X66083Y-42942D01*
X66713Y-42942D01*
X66713Y-43061D01*
X66083Y-43061D01*
X66083Y-43061D01*
G37*
G36*
X66083Y-43316D02*
X66083Y-43198D01*
X66713Y-43198D01*
X66713Y-43316D01*
X66083Y-43316D01*
X66083Y-43316D01*
G37*
G54D16*
X56102Y-36023D03*
X68307Y-36023D03*
X68307Y-48228D03*
X56102Y-48228D03*
M02*
